M48
METRIC,LZ,000.000
;FILE_FORMAT=3:3
;TYPE=PLATED
;Layer: PTH_Through
;EasyEDA v6.5.44, 2024-07-16 08:44:05
;f322a21155e64bfca94832d5c325404b,a277f855c1dd484d8ea612a13ca666de,10
;Gerber Generator version 0.2
;Holesize 1 = 0.306 mm
T01C0.306
;Holesize 2 = 1.000 mm
T02C1.000
;Holesize 3 = 1.101 mm
T03C1.101
;Holesize 4 = 1.200 mm
T04C1.200
%
G05
G90
T01
X041698Y135021
X028979Y112744
T02
X011430Y110490
X013970Y110490
X011430Y113030
X013970Y113030
X011430Y115570
X013970Y115570
X011430Y118110
X013970Y118110
X011430Y120650
X013970Y120650
X011430Y123190
X013970Y123190
X011430Y125730
X013970Y125730
X011430Y128270
X013970Y128270
X054610Y067310
X057150Y067310
X054610Y069850
X057150Y069850
X054610Y072390
X057150Y072390
X054610Y074930
X057150Y074930
X054610Y077470
X057150Y077470
X054610Y080010
X057150Y080010
X054610Y082550
X057150Y082550
X054610Y085090
X057150Y085090
T03
X034290Y125730
X034290Y123190
X036830Y125730
X036830Y123190
X039370Y125730
X039370Y123190
X041910Y125730
X041910Y123190
X044450Y125730
X044450Y123190
X046990Y125730
X046990Y123190
X049530Y125730
X049530Y123190
X052070Y125730
X052070Y123190
X054610Y125730
X054610Y123190
X057150Y125730
X057150Y123190
X039370Y132080
X041910Y132080
X034417Y100203
X034417Y097663
X036957Y100203
X036957Y097663
X039497Y100203
X039497Y097663
X042037Y100203
X042037Y097663
X044577Y100203
X044577Y097663
X047117Y100203
X047117Y097663
X049657Y100203
X049657Y097663
X052197Y100203
X052197Y097663
X054737Y100203
X054737Y097663
X057277Y100203
X057277Y097663
T04
X053340Y142240
X053340Y139700
X053340Y137160
X053340Y134620
X053340Y132080
X035560Y071120
X035560Y073660
X035560Y076200
X035560Y078740
X035560Y081280
M30
