M48
METRIC,LZ,000.000
;FILE_FORMAT=3:3
;TYPE=NON_PLATED
;Layer: NPTH_Through
;EasyEDA v6.5.44, 2024-07-16 08:44:05
;f322a21155e64bfca94832d5c325404b,a277f855c1dd484d8ea612a13ca666de,10
;Gerber Generator version 0.2
;Holesize 1 = 2.032 mm
T01C2.032
%
G05
G90
T01
X058420Y091440
X053340Y091440
X048260Y091440
X043180Y091440
X038100Y091440
X033020Y091440
X027940Y091440
X022860Y091440
X022860Y086360
X022860Y081280
X022860Y076200
X022860Y071120
X022860Y066040
X055880Y091440
X050800Y091440
X045720Y091440
X040640Y091440
X035560Y091440
X030480Y091440
X025400Y091440
X022860Y088900
X022860Y083820
X022860Y078740
X022860Y073660
X022860Y068580
X020320Y091440
X017780Y091440
X015240Y091440
X012700Y091440
X010160Y091440
M30
