G04 Layer: BottomSilkscreenLayer*
G04 EasyEDA v6.5.44, 2024-07-16 08:44:05*
G04 f322a21155e64bfca94832d5c325404b,a277f855c1dd484d8ea612a13ca666de,10*
G04 Gerber Generator version 0.2*
G04 Scale: 100 percent, Rotated: No, Reflected: No *
G04 Dimensions in millimeters *
G04 leading zeros omitted , absolute positions ,4 integer and 5 decimal *
%FSLAX45Y45*%
%MOMM*%

%ADD10C,0.1524*%
%ADD11C,0.2540*%

%LPD*%
D10*
X862584Y11950700D02*
G01*
X971550Y11950700D01*
X862584Y11916410D02*
G01*
X971550Y11916410D01*
X862584Y11916410D02*
G01*
X971550Y11843765D01*
X862584Y11843765D02*
G01*
X971550Y11843765D01*
X4584700Y12853415D02*
G01*
X4584700Y12744450D01*
X4584700Y12853415D02*
G01*
X4517136Y12853415D01*
X4584700Y12801600D02*
G01*
X4543043Y12801600D01*
X4584700Y12744450D02*
G01*
X4517136Y12744450D01*
X4410202Y12837921D02*
G01*
X4420615Y12848336D01*
X4436109Y12853415D01*
X4456938Y12853415D01*
X4472431Y12848336D01*
X4482845Y12837921D01*
X4482845Y12827508D01*
X4477765Y12817094D01*
X4472431Y12811760D01*
X4462018Y12806679D01*
X4431029Y12796265D01*
X4420615Y12791186D01*
X4415281Y12785852D01*
X4410202Y12775437D01*
X4410202Y12759944D01*
X4420615Y12749529D01*
X4436109Y12744450D01*
X4456938Y12744450D01*
X4472431Y12749529D01*
X4482845Y12759944D01*
X4375911Y12853415D02*
G01*
X4375911Y12744450D01*
X4375911Y12853415D02*
G01*
X4329175Y12853415D01*
X4313427Y12848336D01*
X4308347Y12843002D01*
X4303013Y12832587D01*
X4303013Y12817094D01*
X4308347Y12806679D01*
X4313427Y12801600D01*
X4329175Y12796265D01*
X4375911Y12796265D01*
X4268724Y12707874D02*
G01*
X4175252Y12707874D01*
X4099559Y12853415D02*
G01*
X4140961Y12744450D01*
X4099559Y12853415D02*
G01*
X4057904Y12744450D01*
X4125468Y12780771D02*
G01*
X4073397Y12780771D01*
X6255118Y13716000D02*
G01*
X6146152Y13716000D01*
X6255118Y13750289D02*
G01*
X6146152Y13750289D01*
X6255118Y13750289D02*
G01*
X6146152Y13822934D01*
X6255118Y13822934D02*
G01*
X6146152Y13822934D01*
X6109576Y13857224D02*
G01*
X6109576Y13950950D01*
X6229210Y14062963D02*
G01*
X6239624Y14057884D01*
X6250038Y14047470D01*
X6255118Y14037055D01*
X6255118Y14016228D01*
X6250038Y14005813D01*
X6239624Y13995400D01*
X6229210Y13990320D01*
X6213462Y13985239D01*
X6187554Y13985239D01*
X6172060Y13990320D01*
X6161646Y13995400D01*
X6151232Y14005813D01*
X6146152Y14016228D01*
X6146152Y14037055D01*
X6151232Y14047470D01*
X6161646Y14057884D01*
X6172060Y14062963D01*
X4064000Y14288516D02*
G01*
X4064000Y14179550D01*
X4064000Y14288516D02*
G01*
X4017263Y14288516D01*
X4001770Y14283436D01*
X3996436Y14278102D01*
X3991356Y14267687D01*
X3991356Y14252194D01*
X3996436Y14241779D01*
X4001770Y14236700D01*
X4017263Y14231366D01*
X4064000Y14231366D01*
X3925824Y14288516D02*
G01*
X3936238Y14283436D01*
X3946652Y14273021D01*
X3951731Y14262607D01*
X3957065Y14246860D01*
X3957065Y14220952D01*
X3951731Y14205457D01*
X3946652Y14195044D01*
X3936238Y14184629D01*
X3925824Y14179550D01*
X3904995Y14179550D01*
X3894581Y14184629D01*
X3884168Y14195044D01*
X3879088Y14205457D01*
X3873754Y14220952D01*
X3873754Y14246860D01*
X3879088Y14262607D01*
X3884168Y14273021D01*
X3894581Y14283436D01*
X3904995Y14288516D01*
X3925824Y14288516D01*
X3839463Y14288516D02*
G01*
X3813556Y14179550D01*
X3787647Y14288516D02*
G01*
X3813556Y14179550D01*
X3787647Y14288516D02*
G01*
X3761740Y14179550D01*
X3735577Y14288516D02*
G01*
X3761740Y14179550D01*
X3701288Y14288516D02*
G01*
X3701288Y14179550D01*
X3701288Y14288516D02*
G01*
X3633724Y14288516D01*
X3701288Y14236700D02*
G01*
X3659886Y14236700D01*
X3701288Y14179550D02*
G01*
X3633724Y14179550D01*
X3599434Y14288516D02*
G01*
X3599434Y14179550D01*
X3599434Y14288516D02*
G01*
X3552697Y14288516D01*
X3537204Y14283436D01*
X3531870Y14278102D01*
X3526790Y14267687D01*
X3526790Y14257274D01*
X3531870Y14246860D01*
X3537204Y14241779D01*
X3552697Y14236700D01*
X3599434Y14236700D01*
X3563111Y14236700D02*
G01*
X3526790Y14179550D01*
X2634881Y7588758D02*
G01*
X2639961Y7599171D01*
X2650375Y7609586D01*
X2660789Y7614920D01*
X2676537Y7620000D01*
X2702445Y7620000D01*
X2717939Y7614920D01*
X2728353Y7609586D01*
X2738767Y7599171D01*
X2743847Y7588758D01*
X2743847Y7567929D01*
X2738767Y7557770D01*
X2728353Y7547355D01*
X2717939Y7542021D01*
X2702445Y7536942D01*
X2676537Y7536942D01*
X2660789Y7542021D01*
X2650375Y7547355D01*
X2639961Y7557770D01*
X2634881Y7567929D01*
X2634881Y7588758D01*
X2634881Y7502652D02*
G01*
X2712859Y7502652D01*
X2728353Y7497318D01*
X2738767Y7486904D01*
X2743847Y7471410D01*
X2743847Y7460995D01*
X2738767Y7445502D01*
X2728353Y7435087D01*
X2712859Y7429754D01*
X2634881Y7429754D01*
X2634881Y7359142D02*
G01*
X2743847Y7359142D01*
X2634881Y7395463D02*
G01*
X2634881Y7322820D01*
X2780423Y7288529D02*
G01*
X2780423Y7195058D01*
X2660789Y7082789D02*
G01*
X2650375Y7087870D01*
X2639961Y7098284D01*
X2634881Y7108697D01*
X2634881Y7129526D01*
X2639961Y7139939D01*
X2650375Y7150354D01*
X2660789Y7155434D01*
X2676537Y7160768D01*
X2702445Y7160768D01*
X2717939Y7155434D01*
X2728353Y7150354D01*
X2738767Y7139939D01*
X2743847Y7129526D01*
X2743847Y7108697D01*
X2738767Y7098284D01*
X2728353Y7087870D01*
X2717939Y7082789D01*
X4597400Y10300715D02*
G01*
X4597400Y10191750D01*
X4597400Y10300715D02*
G01*
X4529836Y10300715D01*
X4597400Y10248900D02*
G01*
X4555743Y10248900D01*
X4597400Y10191750D02*
G01*
X4529836Y10191750D01*
X4422902Y10285221D02*
G01*
X4433315Y10295636D01*
X4448809Y10300715D01*
X4469638Y10300715D01*
X4485131Y10295636D01*
X4495545Y10285221D01*
X4495545Y10274808D01*
X4490465Y10264394D01*
X4485131Y10259060D01*
X4474718Y10253979D01*
X4443729Y10243565D01*
X4433315Y10238486D01*
X4427981Y10233152D01*
X4422902Y10222737D01*
X4422902Y10207244D01*
X4433315Y10196829D01*
X4448809Y10191750D01*
X4469638Y10191750D01*
X4485131Y10196829D01*
X4495545Y10207244D01*
X4388611Y10300715D02*
G01*
X4388611Y10191750D01*
X4388611Y10300715D02*
G01*
X4341875Y10300715D01*
X4326127Y10295636D01*
X4321047Y10290302D01*
X4315713Y10279887D01*
X4315713Y10264394D01*
X4321047Y10253979D01*
X4326127Y10248900D01*
X4341875Y10243565D01*
X4388611Y10243565D01*
X4281424Y10155174D02*
G01*
X4187952Y10155174D01*
X4153661Y10300715D02*
G01*
X4153661Y10191750D01*
X4153661Y10300715D02*
G01*
X4106925Y10300715D01*
X4091431Y10295636D01*
X4086097Y10290302D01*
X4081018Y10279887D01*
X4081018Y10269474D01*
X4086097Y10259060D01*
X4091431Y10253979D01*
X4106925Y10248900D01*
X4153661Y10248900D02*
G01*
X4106925Y10248900D01*
X4091431Y10243565D01*
X4086097Y10238486D01*
X4081018Y10228071D01*
X4081018Y10212324D01*
X4086097Y10201910D01*
X4091431Y10196829D01*
X4106925Y10191750D01*
X4153661Y10191750D01*
X5180584Y7601458D02*
G01*
X5185663Y7611871D01*
X5196077Y7622286D01*
X5206491Y7627620D01*
X5222240Y7632700D01*
X5248147Y7632700D01*
X5263641Y7627620D01*
X5274056Y7622286D01*
X5284470Y7611871D01*
X5289550Y7601458D01*
X5289550Y7580629D01*
X5284470Y7570470D01*
X5274056Y7560055D01*
X5263641Y7554721D01*
X5248147Y7549642D01*
X5222240Y7549642D01*
X5206491Y7554721D01*
X5196077Y7560055D01*
X5185663Y7570470D01*
X5180584Y7580629D01*
X5180584Y7601458D01*
X5180584Y7515352D02*
G01*
X5258561Y7515352D01*
X5274056Y7510018D01*
X5284470Y7499604D01*
X5289550Y7484110D01*
X5289550Y7473695D01*
X5284470Y7458202D01*
X5274056Y7447787D01*
X5258561Y7442454D01*
X5180584Y7442454D01*
X5180584Y7371842D02*
G01*
X5289550Y7371842D01*
X5180584Y7408163D02*
G01*
X5180584Y7335520D01*
D11*
X1524000Y12979400D02*
G01*
X1016000Y12979400D01*
X1016000Y10896600D01*
X1524000Y10896600D01*
X1524000Y12979400D01*
X5854700Y12446000D02*
G01*
X5588000Y12446000D01*
X5588000Y12204700D01*
X5861989Y12695986D02*
G01*
X3281984Y12695986D01*
X3281984Y12195987D01*
X5861989Y12195987D01*
X5861989Y12695986D01*
X4944003Y14461002D02*
G01*
X6094001Y14461002D01*
X6094001Y14461002D02*
G01*
X6094001Y12971002D01*
X4944005Y12971002D02*
G01*
X6094001Y12971002D01*
X4944003Y12970002D02*
G01*
X4944003Y13102000D01*
X5394002Y13102000D01*
X4943929Y14459999D02*
G01*
X4943929Y14328000D01*
X5393928Y14328000D01*
X5394002Y13102000D02*
G01*
X5394002Y13112155D01*
X5394002Y13303844D02*
G01*
X5394002Y13366155D01*
X5394002Y13557844D02*
G01*
X5394002Y13620155D01*
X5394002Y13811844D02*
G01*
X5394002Y13874155D01*
X5394002Y14065844D02*
G01*
X5394002Y14110886D01*
X5394002Y14337113D02*
G01*
X5394002Y14461002D01*
X5394002Y13102000D02*
G01*
X5394002Y12971002D01*
X4433999Y14128000D02*
G01*
X3694000Y14128000D01*
X3694000Y14128000D02*
G01*
X3694000Y12978000D01*
X4433999Y12977997D02*
G01*
X4433999Y14128000D01*
X4433999Y12978000D02*
G01*
X4318998Y12978000D01*
X4318998Y13208000D01*
X3693998Y12978000D02*
G01*
X3809004Y12978000D01*
X3809004Y13208000D01*
X4318998Y14127998D02*
G01*
X4318998Y13872997D01*
X4218998Y13872997D01*
X4218998Y14127998D01*
X3908991Y14125488D02*
G01*
X3908991Y13870487D01*
X3808991Y13870487D01*
X3808991Y14125488D01*
X4434077Y13208000D02*
G01*
X4299112Y13208000D01*
X4082884Y13208000D02*
G01*
X4045112Y13208000D01*
X3828884Y13208000D02*
G01*
X3694000Y13208000D01*
X3945996Y6874997D02*
G01*
X2795998Y6874997D01*
X2795998Y6874997D02*
G01*
X2795998Y8364997D01*
X3945994Y8364997D02*
G01*
X2795998Y8364997D01*
X3945996Y8365997D02*
G01*
X3945996Y8233999D01*
X3495997Y8233999D01*
X3946070Y6876000D02*
G01*
X3946070Y7007999D01*
X3496071Y7007999D01*
X3495997Y8233999D02*
G01*
X3495997Y8223844D01*
X3495997Y8032155D02*
G01*
X3495997Y7969844D01*
X3495997Y7778155D02*
G01*
X3495997Y7715844D01*
X3495997Y7524155D02*
G01*
X3495997Y7461844D01*
X3495997Y7270155D02*
G01*
X3495997Y7225113D01*
X3495997Y6998886D02*
G01*
X3495997Y6874997D01*
X3495997Y8233999D02*
G01*
X3495997Y8364997D01*
X5867400Y9893300D02*
G01*
X5600700Y9893300D01*
X5600700Y9652000D01*
X5874689Y10143286D02*
G01*
X3294684Y10143286D01*
X3294684Y9643287D01*
X5874689Y9643287D01*
X5874689Y10143286D01*
X5842000Y8661400D02*
G01*
X5334000Y8661400D01*
X5334000Y6578600D01*
X5842000Y6578600D01*
X5842000Y8661400D01*
M02*
