G04 Layer: BottomLayer*
G04 EasyEDA v6.5.44, 2024-07-16 08:44:05*
G04 f322a21155e64bfca94832d5c325404b,a277f855c1dd484d8ea612a13ca666de,10*
G04 Gerber Generator version 0.2*
G04 Scale: 100 percent, Rotated: No, Reflected: No *
G04 Dimensions in millimeters *
G04 leading zeros omitted , absolute positions ,4 integer and 5 decimal *
%FSLAX45Y45*%
%MOMM*%

%AMMACRO1*21,1,$1,$2,0,0,$3*%
%ADD10C,0.2540*%
%ADD11C,1.8000*%
%ADD12MACRO1,1.8X1.8X-90.0000*%
%ADD13MACRO1,1.8X1.8X0.0000*%
%ADD14C,1.7000*%
%ADD15MACRO1,1.8X1.8X90.0000*%
%ADD16C,0.6100*%

%LPD*%
D10*
X1143000Y11049000D02*
G01*
X1022350Y11169650D01*
X1022350Y11860403D01*
X1099946Y11938000D01*
X4318000Y11938000D01*
X4699000Y12319000D01*
X1143000Y12319000D02*
G01*
X1278915Y12454915D01*
X1278915Y12937693D01*
X2311222Y13970000D01*
X5334000Y13970000D01*
X4203700Y10020300D02*
G01*
X4203700Y10054818D01*
X2828518Y11430000D01*
X1270000Y11430000D01*
X1143000Y11557000D01*
X1143000Y11811000D02*
G01*
X1270000Y11684000D01*
X2794000Y11684000D01*
X4457700Y10020300D01*
X4711700Y10020300D02*
G01*
X2921000Y11811000D01*
X1397000Y11811000D01*
X1143000Y12065000D02*
G01*
X1270000Y12192000D01*
X1270000Y12358979D01*
X1357020Y12446000D01*
X2911144Y12446000D01*
X3831386Y13366242D01*
X5237530Y13366242D01*
X5268772Y13335000D01*
X5383682Y13335000D01*
X5469915Y13421232D01*
X5469915Y13580084D01*
X5334000Y13716000D01*
X5334000Y13208000D02*
G01*
X5334000Y12263628D01*
X5269636Y12199264D01*
X4905222Y12199264D01*
X4826000Y12278487D01*
X4826000Y12359284D01*
X4746472Y12438811D01*
X3048025Y12438811D01*
X2928213Y12319000D01*
X1397000Y12319000D01*
X5334000Y14224000D02*
G01*
X2372588Y14224000D01*
X1024229Y12875640D01*
X1024229Y12691770D01*
X1143000Y12573000D01*
X5334000Y13462000D02*
G01*
X5222951Y13573048D01*
X2260955Y13573048D01*
X1514906Y12827000D01*
X1397000Y12827000D02*
G01*
X1514906Y12827000D01*
X3556025Y7112000D02*
G01*
X4629683Y7112000D01*
X5391683Y7874000D01*
X5774766Y7874000D01*
X5850915Y7950149D01*
X5850915Y8314131D01*
X5773953Y8391093D01*
X5715000Y8391093D01*
X5715000Y8509000D02*
G01*
X5715000Y8391093D01*
X5461000Y8001000D02*
G01*
X4826000Y7366000D01*
X3556025Y7366000D01*
X5461000Y8255000D02*
G01*
X4826000Y7620000D01*
X3556025Y7620000D01*
X5461000Y8509000D02*
G01*
X4191025Y8509000D01*
X3556025Y7874000D01*
X3556025Y8128000D02*
G01*
X4064761Y8636736D01*
X5505043Y8636736D01*
X5588000Y8553780D01*
X5588000Y8128000D01*
X5715000Y8001000D01*
X3937000Y13208000D02*
G01*
X4054449Y13325449D01*
X4370552Y13325449D01*
X5080000Y12616002D01*
X5080000Y12446000D01*
X5207000Y12319000D01*
X2897860Y11274425D02*
G01*
X1425575Y11274425D01*
X1397000Y11303000D01*
X4191000Y13208000D02*
G01*
X4250385Y13208000D01*
X4826000Y12632385D01*
X4826000Y12446000D01*
X4953000Y12319000D01*
X4169765Y13502131D02*
G01*
X2326131Y13502131D01*
X1397000Y12573000D01*
D11*
G01*
X1143000Y11049000D03*
G01*
X1397000Y11049000D03*
G01*
X1143000Y11303000D03*
G01*
X1397000Y11303000D03*
G01*
X1143000Y11557000D03*
G01*
X1397000Y11557000D03*
G01*
X1143000Y11811000D03*
G01*
X1397000Y11811000D03*
G01*
X1143000Y12065000D03*
G01*
X1397000Y12065000D03*
G01*
X1143000Y12319000D03*
G01*
X1397000Y12319000D03*
G01*
X1143000Y12573000D03*
G01*
X1397000Y12573000D03*
G01*
X1143000Y12827000D03*
D12*
G01*
X1397000Y12827000D03*
D11*
G01*
X3429000Y12573000D03*
G01*
X3429000Y12319000D03*
G01*
X3683000Y12573000D03*
G01*
X3683000Y12319000D03*
G01*
X3937000Y12573000D03*
G01*
X3937000Y12319000D03*
G01*
X4191000Y12573000D03*
G01*
X4191000Y12319000D03*
G01*
X4445000Y12573000D03*
G01*
X4445000Y12319000D03*
G01*
X4699000Y12573000D03*
G01*
X4699000Y12319000D03*
G01*
X4953000Y12573000D03*
G01*
X4953000Y12319000D03*
G01*
X5207000Y12573000D03*
G01*
X5207000Y12319000D03*
G01*
X5461000Y12573000D03*
G01*
X5461000Y12319000D03*
G01*
X5715000Y12573000D03*
D13*
G01*
X5715000Y12319000D03*
D12*
G01*
X5334000Y14224000D03*
D11*
G01*
X5333987Y13970000D03*
G01*
X5333987Y13716000D03*
G01*
X5333987Y13462000D03*
G01*
X5333987Y13208000D03*
D14*
G01*
X3937000Y13208000D03*
G01*
X4191000Y13208000D03*
D15*
G01*
X3556000Y7112000D03*
D11*
G01*
X3556012Y7366000D03*
G01*
X3556012Y7620000D03*
G01*
X3556012Y7874000D03*
G01*
X3556012Y8128000D03*
G01*
X3441700Y10020300D03*
G01*
X3441700Y9766300D03*
G01*
X3695700Y10020300D03*
G01*
X3695700Y9766300D03*
G01*
X3949700Y10020300D03*
G01*
X3949700Y9766300D03*
G01*
X4203700Y10020300D03*
G01*
X4203700Y9766300D03*
G01*
X4457700Y10020300D03*
G01*
X4457700Y9766300D03*
G01*
X4711700Y10020300D03*
G01*
X4711700Y9766300D03*
G01*
X4965700Y10020300D03*
G01*
X4965700Y9766300D03*
G01*
X5219700Y10020300D03*
G01*
X5219700Y9766300D03*
G01*
X5473700Y10020300D03*
G01*
X5473700Y9766300D03*
G01*
X5727700Y10020300D03*
D13*
G01*
X5727700Y9766300D03*
D11*
G01*
X5461000Y6731000D03*
G01*
X5715000Y6731000D03*
G01*
X5461000Y6985000D03*
G01*
X5715000Y6985000D03*
G01*
X5461000Y7239000D03*
G01*
X5715000Y7239000D03*
G01*
X5461000Y7493000D03*
G01*
X5715000Y7493000D03*
G01*
X5461000Y7747000D03*
G01*
X5715000Y7747000D03*
G01*
X5461000Y8001000D03*
G01*
X5715000Y8001000D03*
G01*
X5461000Y8255000D03*
G01*
X5715000Y8255000D03*
G01*
X5461000Y8509000D03*
D12*
G01*
X5715000Y8509000D03*
D16*
G01*
X4169765Y13502131D03*
G01*
X2897860Y11274425D03*
M02*
